<svg xmlns="http://www.w3.org/2000/svg" xmlns:xlink="http://www.w3.org/1999/xlink" width="500" zoomAndPan="magnify" viewBox="0 0 375 374.999991" height="500" preserveAspectRatio="xMidYMid meet" version="1.0"><defs><g/><clipPath id="70f0cf835d"><path d="M 53.144531 99 L 87 99 L 87 157 L 53.144531 157 Z M 53.144531 99 " clip-rule="nonzero"/></clipPath><clipPath id="cf7e0bc722"><path d="M 288 127 L 321.855469 127 L 321.855469 185 L 288 185 Z M 288 127 " clip-rule="nonzero"/></clipPath><clipPath id="b89dae7740"><path d="M 126 214 L 221 214 L 221 275.761719 L 126 275.761719 Z M 126 214 " clip-rule="nonzero"/></clipPath></defs><path fill="#ffa69e" d="M 71.140625 189.027344 L 280.398438 225.222656 L 303.859375 94.746094 L 94.601562 58.511719 Z M 284.246094 235.53125 C 283.984375 235.53125 283.722656 235.496094 283.460938 235.457031 L 64.753906 197.65625 C 63.523438 197.394531 62.402344 196.683594 61.652344 195.675781 C 60.945312 194.628906 60.644531 193.324219 60.871094 192.089844 L 86.007812 52.160156 C 86.496094 49.585938 88.960938 47.867188 91.539062 48.316406 L 310.246094 86.117188 C 311.476562 86.339844 312.597656 87.050781 313.347656 88.097656 C 314.054688 89.140625 314.355469 90.449219 314.128906 91.683594 L 288.953125 231.609375 C 288.578125 233.925781 286.527344 235.53125 284.246094 235.53125 " fill-opacity="1" fill-rule="nonzero"/><path fill="#ffa69e" d="M 254.4375 113.199219 C 245.324219 113.199219 237.253906 119.734375 235.613281 129 C 234.714844 134.003906 235.835938 139.085938 238.785156 143.304688 C 241.699219 147.488281 246.109375 150.292969 251.113281 151.148438 C 256.15625 152.046875 261.238281 150.925781 265.421875 147.976562 C 269.605469 145.0625 272.367188 140.652344 273.265625 135.648438 C 274.160156 130.605469 273.039062 125.523438 270.089844 121.339844 C 267.175781 117.15625 262.769531 114.394531 257.761719 113.496094 C 256.640625 113.3125 255.523438 113.199219 254.4375 113.199219 Z M 254.511719 161.011719 C 252.832031 161.011719 251.152344 160.863281 249.46875 160.5625 C 241.925781 159.257812 235.351562 155.074219 230.941406 148.757812 C 226.574219 142.484375 224.855469 134.863281 226.199219 127.320312 C 228.964844 111.742188 243.828125 101.28125 259.40625 104.085938 C 266.953125 105.390625 273.527344 109.613281 277.933594 115.886719 C 282.304688 122.164062 284.023438 129.746094 282.679688 137.292969 C 281.371094 144.835938 277.1875 151.410156 270.875 155.820312 C 266.019531 159.257812 260.304688 161.011719 254.511719 161.011719 " fill-opacity="1" fill-rule="nonzero"/><path fill="#ffa69e" d="M 208.195312 222.382812 C 206.738281 222.382812 205.242188 221.675781 204.308594 220.367188 L 128.742188 114.46875 L 76.671875 150.214844 C 74.503906 151.710938 71.515625 151.148438 70.023438 148.984375 C 68.527344 146.816406 69.085938 143.828125 71.253906 142.335938 L 127.171875 103.933594 C 129.339844 102.441406 132.253906 102.964844 133.785156 105.09375 L 212.117188 214.800781 C 213.609375 216.96875 213.125 219.957031 210.996094 221.488281 C 210.136719 222.085938 209.164062 222.382812 208.195312 222.382812 " fill-opacity="1" fill-rule="nonzero"/><path fill="#ffa69e" d="M 265.269531 232.246094 C 263.738281 232.246094 262.28125 231.535156 261.347656 230.230469 L 217.085938 168.222656 L 187.425781 188.617188 C 185.257812 190.109375 182.269531 189.550781 180.777344 187.382812 C 179.28125 185.21875 179.84375 182.230469 182.007812 180.734375 L 215.554688 157.6875 C 217.683594 156.191406 220.632812 156.714844 222.128906 158.84375 L 269.117188 224.664062 C 270.6875 226.828125 270.203125 229.816406 268.035156 231.347656 C 267.214844 231.945312 266.203125 232.246094 265.269531 232.246094 " fill-opacity="1" fill-rule="nonzero"/><g clip-path="url(#70f0cf835d)"><path fill="#ffa69e" d="M 72.972656 156.492188 C 71.066406 156.492188 69.238281 155.296875 68.488281 153.355469 L 53.921875 114.019531 C 53.472656 112.824219 53.511719 111.480469 54.070312 110.324219 C 54.59375 109.164062 55.601562 108.269531 56.796875 107.855469 L 79.957031 99.527344 C 82.421875 98.628906 85.1875 99.902344 86.082031 102.402344 C 86.941406 104.90625 85.671875 107.632812 83.171875 108.53125 L 64.566406 115.214844 L 77.453125 150.03125 C 78.390625 152.496094 77.117188 155.257812 74.652344 156.15625 C 74.09375 156.378906 73.53125 156.492188 72.972656 156.492188 " fill-opacity="1" fill-rule="nonzero"/></g><g clip-path="url(#cf7e0bc722)"><path fill="#ffa69e" d="M 293.4375 184.507812 C 291.457031 184.507812 289.625 183.3125 288.917969 181.332031 C 288.058594 178.867188 289.328125 176.140625 291.828125 175.242188 L 310.433594 168.558594 L 297.507812 133.742188 C 296.609375 131.242188 297.84375 128.515625 300.347656 127.578125 C 302.8125 126.644531 305.574219 127.917969 306.472656 130.382812 L 321.078125 169.753906 C 321.527344 170.949219 321.488281 172.292969 320.929688 173.449219 C 320.40625 174.609375 319.398438 175.503906 318.203125 175.914062 L 295.042969 184.246094 C 294.519531 184.433594 293.996094 184.507812 293.4375 184.507812 " fill-opacity="1" fill-rule="nonzero"/></g><path fill="#ffa69e" d="M 107.898438 250.699219 C 105.992188 250.699219 104.164062 249.503906 103.417969 247.5625 L 85.335938 198.777344 C 84.402344 196.3125 85.671875 193.546875 88.175781 192.613281 C 90.640625 191.679688 93.367188 192.988281 94.300781 195.453125 L 110.773438 239.828125 L 192.503906 210.65625 C 195.007812 209.757812 197.734375 211.066406 198.632812 213.53125 C 199.527344 216.035156 198.21875 218.761719 195.71875 219.65625 L 109.503906 250.4375 C 108.980469 250.585938 108.457031 250.699219 107.898438 250.699219 " fill-opacity="1" fill-rule="nonzero"/><path fill="#ffa69e" d="M 285.179688 91.421875 C 283.238281 91.421875 281.40625 90.226562 280.699219 88.320312 L 264.226562 43.945312 L 182.457031 73.117188 C 179.992188 74.015625 177.265625 72.707031 176.367188 70.203125 C 175.472656 67.738281 176.78125 65.011719 179.28125 64.117188 L 265.457031 33.335938 C 267.921875 32.4375 270.648438 33.710938 271.546875 36.175781 L 289.664062 84.957031 C 290.597656 87.460938 289.328125 90.1875 286.863281 91.121094 C 286.300781 91.347656 285.742188 91.421875 285.179688 91.421875 " fill-opacity="1" fill-rule="nonzero"/><g clip-path="url(#b89dae7740)"><path fill="#ffa69e" d="M 171.660156 275.761719 C 170.578125 275.761719 169.496094 275.390625 168.597656 274.679688 L 128.105469 241.324219 C 126.089844 239.640625 125.792969 236.617188 127.472656 234.597656 C 129.152344 232.542969 132.179688 232.285156 134.195312 233.925781 L 171.0625 264.296875 L 212.527344 215.847656 C 214.246094 213.867188 217.269531 213.605469 219.289062 215.324219 C 221.304688 217.042969 221.53125 220.070312 219.8125 222.085938 L 175.285156 274.121094 C 174.3125 275.203125 172.96875 275.761719 171.660156 275.761719 " fill-opacity="1" fill-rule="nonzero"/></g><path fill="#ffa69e" d="M 158.925781 69.605469 C 157.804688 69.605469 156.683594 69.195312 155.785156 68.449219 C 153.808594 66.730469 153.546875 63.703125 155.261719 61.6875 L 199.789062 9.691406 C 201.507812 7.710938 204.496094 7.449219 206.476562 9.09375 L 246.96875 42.449219 C 248.984375 44.132812 249.285156 47.15625 247.601562 49.171875 C 245.921875 51.226562 242.933594 51.488281 240.878906 49.808594 L 204.011719 19.476562 L 162.546875 67.925781 C 161.578125 69.007812 160.269531 69.605469 158.925781 69.605469 " fill-opacity="1" fill-rule="nonzero"/><path fill="#ffa69e" d="M 239.535156 266.238281 C 239.234375 266.238281 238.972656 266.238281 238.710938 266.199219 L 186.714844 257.160156 C 184.101562 256.75 182.34375 254.246094 182.792969 251.671875 C 183.242188 249.054688 185.746094 247.300781 188.320312 247.785156 L 235.648438 255.964844 L 241.550781 223.316406 C 242 220.703125 244.464844 218.984375 247.078125 219.472656 C 249.695312 219.917969 251.414062 222.421875 250.964844 225.035156 L 244.242188 262.316406 C 243.828125 264.632812 241.8125 266.238281 239.535156 266.238281 " fill-opacity="1" fill-rule="nonzero"/><path fill="#ffa69e" d="M 128.78125 64.375 C 128.480469 64.375 128.21875 64.339844 127.921875 64.300781 C 125.304688 63.816406 123.585938 61.351562 124.035156 58.738281 L 130.757812 21.457031 C 131.207031 18.84375 133.710938 17.160156 136.289062 17.570312 L 188.398438 26.574219 C 190.972656 27.023438 192.730469 29.527344 192.28125 32.101562 C 191.832031 34.71875 189.441406 36.472656 186.753906 36.023438 L 139.3125 27.808594 L 133.484375 60.417969 C 133.039062 62.734375 131.019531 64.375 128.78125 64.375 " fill-opacity="1" fill-rule="nonzero"/><g fill="#000000" fill-opacity="1"><g transform="translate(25.749193, 350.03255)"><g><path d="M 8.96875 0.5 C 6.207031 0.5 4.828125 -0.921875 4.828125 -3.765625 L 4.828125 -39.9375 C 4.828125 -42.769531 6.25 -44.1875 9.09375 -44.1875 L 30.96875 -44.1875 C 33.144531 -44.1875 34.234375 -43.144531 34.234375 -41.0625 C 34.234375 -38.882812 33.144531 -37.796875 30.96875 -37.796875 L 12.84375 -37.796875 L 12.84375 -25.328125 L 29.65625 -25.328125 C 31.820312 -25.328125 32.90625 -24.28125 32.90625 -22.1875 C 32.90625 -20.019531 31.820312 -18.9375 29.65625 -18.9375 L 12.84375 -18.9375 L 12.84375 -3.765625 C 12.84375 -0.921875 11.550781 0.5 8.96875 0.5 Z M 8.96875 0.5 "/></g></g></g><g fill="#000000" fill-opacity="1"><g transform="translate(60.978078, 350.03255)"><g><path d="M 8.84375 0.5 C 6.164062 0.5 4.828125 -0.878906 4.828125 -3.640625 L 4.828125 -40.5625 C 4.828125 -43.320312 6.164062 -44.703125 8.84375 -44.703125 C 11.507812 -44.703125 12.84375 -43.320312 12.84375 -40.5625 L 12.84375 -3.640625 C 12.84375 -0.878906 11.507812 0.5 8.84375 0.5 Z M 8.84375 0.5 "/></g></g></g><g fill="#000000" fill-opacity="1"><g transform="translate(78.655202, 350.03255)"><g><path d="M 8.84375 0.5 C 6.164062 0.5 4.828125 -0.878906 4.828125 -3.640625 L 4.828125 -40.125 C 4.828125 -42.832031 6.1875 -44.1875 8.90625 -44.1875 L 24.015625 -44.1875 C 28.859375 -44.1875 32.59375 -43.023438 35.21875 -40.703125 C 37.851562 -38.390625 39.171875 -35.144531 39.171875 -30.96875 C 39.171875 -27.664062 38.316406 -24.9375 36.609375 -22.78125 C 34.898438 -20.632812 32.4375 -19.1875 29.21875 -18.4375 C 31.34375 -17.757812 33.097656 -16.148438 34.484375 -13.609375 L 39.171875 -4.890625 C 39.890625 -3.554688 40.023438 -2.320312 39.578125 -1.1875 C 39.140625 -0.0625 38.066406 0.5 36.359375 0.5 C 35.234375 0.5 34.3125 0.257812 33.59375 -0.21875 C 32.882812 -0.695312 32.257812 -1.4375 31.71875 -2.4375 L 25.390625 -14.109375 C 24.640625 -15.523438 23.75 -16.472656 22.71875 -16.953125 C 21.695312 -17.429688 20.394531 -17.671875 18.8125 -17.671875 L 12.84375 -17.671875 L 12.84375 -3.640625 C 12.84375 -0.878906 11.507812 0.5 8.84375 0.5 Z M 12.84375 -23.640625 L 22.625 -23.640625 C 28.476562 -23.640625 31.40625 -26.019531 31.40625 -30.78125 C 31.40625 -35.5 28.476562 -37.859375 22.625 -37.859375 L 12.84375 -37.859375 Z M 12.84375 -23.640625 "/></g></g></g><g fill="#000000" fill-opacity="1"><g transform="translate(121.657, 350.03255)"><g><path d="M 9.09375 0 C 6.25 0 4.828125 -1.421875 4.828125 -4.265625 L 4.828125 -39.9375 C 4.828125 -42.769531 6.25 -44.1875 9.09375 -44.1875 L 31.46875 -44.1875 C 33.644531 -44.1875 34.734375 -43.144531 34.734375 -41.0625 C 34.734375 -38.882812 33.644531 -37.796875 31.46875 -37.796875 L 12.53125 -37.796875 L 12.53125 -25.640625 L 30.09375 -25.640625 C 32.257812 -25.640625 33.34375 -24.570312 33.34375 -22.4375 C 33.34375 -20.3125 32.257812 -19.25 30.09375 -19.25 L 12.53125 -19.25 L 12.53125 -6.390625 L 31.46875 -6.390625 C 33.644531 -6.390625 34.734375 -5.328125 34.734375 -3.203125 C 34.734375 -1.066406 33.644531 0 31.46875 0 Z M 9.09375 0 "/></g></g></g><g fill="#000000" fill-opacity="1"><g transform="translate(159.079855, 350.03255)"><g><path d="M 26.078125 0.625 C 21.191406 0.625 17.066406 -0.289062 13.703125 -2.125 C 10.335938 -3.96875 7.773438 -6.582031 6.015625 -9.96875 C 4.265625 -13.351562 3.390625 -17.363281 3.390625 -22 C 3.390625 -26.6875 4.285156 -30.734375 6.078125 -34.140625 C 7.878906 -37.546875 10.472656 -40.175781 13.859375 -42.03125 C 17.242188 -43.894531 21.296875 -44.828125 26.015625 -44.828125 C 28.359375 -44.828125 30.707031 -44.539062 33.0625 -43.96875 C 35.425781 -43.40625 37.65625 -42.457031 39.75 -41.125 C 40.664062 -40.582031 41.195312 -39.859375 41.34375 -38.953125 C 41.488281 -38.054688 41.351562 -37.210938 40.9375 -36.421875 C 40.519531 -35.628906 39.890625 -35.078125 39.046875 -34.765625 C 38.210938 -34.453125 37.296875 -34.585938 36.296875 -35.171875 C 34.703125 -36.085938 33.09375 -36.753906 31.46875 -37.171875 C 29.84375 -37.585938 28.023438 -37.796875 26.015625 -37.796875 C 21.335938 -37.796875 17.796875 -36.4375 15.390625 -33.71875 C 12.984375 -31.007812 11.78125 -27.101562 11.78125 -22 C 11.78125 -16.863281 13.015625 -12.957031 15.484375 -10.28125 C 17.953125 -7.601562 21.609375 -6.265625 26.453125 -6.265625 C 27.828125 -6.265625 29.234375 -6.378906 30.671875 -6.609375 C 32.117188 -6.835938 33.554688 -7.179688 34.984375 -7.640625 L 34.984375 -17.921875 L 28.078125 -17.921875 C 25.910156 -17.921875 24.828125 -18.925781 24.828125 -20.9375 C 24.828125 -22.90625 25.910156 -23.890625 28.078125 -23.890625 L 38.421875 -23.890625 C 40.597656 -23.890625 41.6875 -22.800781 41.6875 -20.625 L 41.6875 -5.390625 C 41.6875 -3.460938 40.9375 -2.226562 39.4375 -1.6875 C 37.59375 -1.019531 35.476562 -0.46875 33.09375 -0.03125 C 30.71875 0.40625 28.378906 0.625 26.078125 0.625 Z M 26.078125 0.625 "/></g></g></g><g fill="#000000" fill-opacity="1"><g transform="translate(205.215899, 350.03255)"><g><path d="M 8.84375 0.5 C 6.164062 0.5 4.828125 -0.878906 4.828125 -3.640625 L 4.828125 -40.125 C 4.828125 -42.832031 6.1875 -44.1875 8.90625 -44.1875 L 24.015625 -44.1875 C 28.859375 -44.1875 32.59375 -43.023438 35.21875 -40.703125 C 37.851562 -38.390625 39.171875 -35.144531 39.171875 -30.96875 C 39.171875 -27.664062 38.316406 -24.9375 36.609375 -22.78125 C 34.898438 -20.632812 32.4375 -19.1875 29.21875 -18.4375 C 31.34375 -17.757812 33.097656 -16.148438 34.484375 -13.609375 L 39.171875 -4.890625 C 39.890625 -3.554688 40.023438 -2.320312 39.578125 -1.1875 C 39.140625 -0.0625 38.066406 0.5 36.359375 0.5 C 35.234375 0.5 34.3125 0.257812 33.59375 -0.21875 C 32.882812 -0.695312 32.257812 -1.4375 31.71875 -2.4375 L 25.390625 -14.109375 C 24.640625 -15.523438 23.75 -16.472656 22.71875 -16.953125 C 21.695312 -17.429688 20.394531 -17.671875 18.8125 -17.671875 L 12.84375 -17.671875 L 12.84375 -3.640625 C 12.84375 -0.878906 11.507812 0.5 8.84375 0.5 Z M 12.84375 -23.640625 L 22.625 -23.640625 C 28.476562 -23.640625 31.40625 -26.019531 31.40625 -30.78125 C 31.40625 -35.5 28.476562 -37.859375 22.625 -37.859375 L 12.84375 -37.859375 Z M 12.84375 -23.640625 "/></g></g></g><g fill="#000000" fill-opacity="1"><g transform="translate(248.217697, 350.03255)"><g><path d="M 5.265625 0.5 C 3.804688 0.5 2.757812 0 2.125 -1 C 1.5 -2 1.519531 -3.210938 2.1875 -4.640625 L 18.75 -41.3125 C 19.289062 -42.519531 19.945312 -43.382812 20.71875 -43.90625 C 21.488281 -44.4375 22.375 -44.703125 23.375 -44.703125 C 24.34375 -44.703125 25.210938 -44.4375 25.984375 -43.90625 C 26.753906 -43.382812 27.410156 -42.519531 27.953125 -41.3125 L 44.578125 -4.640625 C 45.242188 -3.171875 45.28125 -1.945312 44.6875 -0.96875 C 44.101562 0.0078125 43.101562 0.5 41.6875 0.5 C 40.519531 0.5 39.609375 0.21875 38.953125 -0.34375 C 38.304688 -0.90625 37.734375 -1.773438 37.234375 -2.953125 L 34.109375 -10.21875 L 12.53125 -10.21875 L 9.46875 -2.953125 C 8.925781 -1.734375 8.359375 -0.851562 7.765625 -0.3125 C 7.179688 0.226562 6.347656 0.5 5.265625 0.5 Z M 23.25 -35.484375 L 15.296875 -16.609375 L 31.34375 -16.609375 L 23.375 -35.484375 Z M 23.25 -35.484375 "/></g></g></g><g fill="#000000" fill-opacity="1"><g transform="translate(294.855214, 350.03255)"><g><path d="M 8.59375 0.5 C 6.164062 0.5 4.953125 -0.753906 4.953125 -3.265625 L 4.953125 -40.9375 C 4.953125 -43.445312 6.207031 -44.703125 8.71875 -44.703125 C 9.757812 -44.703125 10.582031 -44.5 11.1875 -44.09375 C 11.789062 -43.695312 12.34375 -43.019531 12.84375 -42.0625 L 27.328125 -15.296875 L 41.8125 -42.0625 C 42.3125 -43.019531 42.851562 -43.695312 43.4375 -44.09375 C 44.019531 -44.5 44.835938 -44.703125 45.890625 -44.703125 C 48.304688 -44.703125 49.515625 -43.445312 49.515625 -40.9375 L 49.515625 -3.265625 C 49.515625 -0.753906 48.304688 0.5 45.890625 0.5 C 43.460938 0.5 42.25 -0.753906 42.25 -3.265625 L 42.25 -29.78125 L 30.46875 -8.28125 C 30.050781 -7.5625 29.609375 -7.035156 29.140625 -6.703125 C 28.679688 -6.367188 28.054688 -6.203125 27.265625 -6.203125 C 26.472656 -6.203125 25.828125 -6.378906 25.328125 -6.734375 C 24.828125 -7.085938 24.390625 -7.601562 24.015625 -8.28125 L 12.21875 -29.65625 L 12.21875 -3.265625 C 12.21875 -0.753906 11.007812 0.5 8.59375 0.5 Z M 8.59375 0.5 "/></g></g></g></svg>