<svg xmlns="http://www.w3.org/2000/svg" xmlns:xlink="http://www.w3.org/1999/xlink" width="500" zoomAndPan="magnify" viewBox="0 0 375 374.999991" height="500" preserveAspectRatio="xMidYMid meet" version="1.0"><defs><clipPath id="4277c9d78e"><path d="M 7.027344 130 L 52 130 L 52 208 L 7.027344 208 Z M 7.027344 130 " clip-rule="nonzero"/></clipPath><clipPath id="dd4691b64c"><path d="M 323 168 L 367.777344 168 L 367.777344 246 L 323 246 Z M 323 168 " clip-rule="nonzero"/></clipPath><clipPath id="c9daf42831"><path d="M 105 285 L 233 285 L 233 367.777344 L 105 367.777344 Z M 105 285 " clip-rule="nonzero"/></clipPath></defs><path fill="#ffa69e" d="M 31.191406 251.332031 L 312.125 299.925781 L 343.617188 124.757812 L 62.683594 76.113281 Z M 317.289062 313.769531 C 316.9375 313.769531 316.585938 313.71875 316.234375 313.667969 L 22.613281 262.917969 C 20.960938 262.566406 19.457031 261.613281 18.453125 260.257812 C 17.5 258.855469 17.097656 257.101562 17.398438 255.445312 L 51.148438 67.589844 C 51.800781 64.128906 55.109375 61.820312 58.570312 62.421875 L 352.191406 113.171875 C 353.847656 113.472656 355.351562 114.425781 356.355469 115.832031 C 357.308594 117.234375 357.707031 118.992188 357.40625 120.644531 L 323.609375 308.503906 C 323.105469 311.613281 320.347656 313.769531 317.289062 313.769531 " fill-opacity="1" fill-rule="nonzero"/><path fill="#ffa69e" d="M 277.269531 149.53125 C 265.035156 149.53125 254.203125 158.308594 251.996094 170.742188 C 250.792969 177.464844 252.296875 184.285156 256.257812 189.949219 C 260.167969 195.566406 266.085938 199.328125 272.808594 200.480469 C 279.578125 201.6875 286.398438 200.179688 292.015625 196.21875 C 297.628906 192.308594 301.339844 186.390625 302.546875 179.671875 C 303.75 172.902344 302.242188 166.082031 298.28125 160.464844 C 294.371094 154.847656 288.453125 151.136719 281.734375 149.933594 C 280.230469 149.679688 278.722656 149.53125 277.269531 149.53125 Z M 277.371094 213.722656 C 275.113281 213.722656 272.855469 213.519531 270.601562 213.121094 C 260.46875 211.363281 251.644531 205.746094 245.726562 197.273438 C 239.859375 188.847656 237.550781 178.617188 239.359375 168.488281 C 243.070312 147.574219 263.027344 133.535156 283.941406 137.292969 C 294.070312 139.050781 302.894531 144.71875 308.8125 153.140625 C 314.679688 161.566406 316.988281 171.746094 315.183594 181.878906 C 313.425781 192.007812 307.8125 200.832031 299.335938 206.75 C 292.816406 211.363281 285.144531 213.722656 277.371094 213.722656 " fill-opacity="1" fill-rule="nonzero"/><path fill="#ffa69e" d="M 215.1875 296.117188 C 213.230469 296.117188 211.222656 295.164062 209.96875 293.40625 L 108.519531 151.234375 L 38.613281 199.230469 C 35.703125 201.234375 31.691406 200.480469 29.6875 197.574219 C 27.679688 194.664062 28.433594 190.652344 31.339844 188.648438 L 106.414062 137.09375 C 109.320312 135.089844 113.234375 135.789062 115.289062 138.648438 L 220.453125 285.9375 C 222.457031 288.84375 221.804688 292.855469 218.945312 294.914062 C 217.792969 295.714844 216.488281 296.117188 215.1875 296.117188 " fill-opacity="1" fill-rule="nonzero"/><path fill="#ffa69e" d="M 291.8125 309.355469 C 289.757812 309.355469 287.800781 308.402344 286.546875 306.648438 L 227.121094 223.398438 L 187.304688 250.78125 C 184.394531 252.789062 180.382812 252.035156 178.375 249.125 C 176.371094 246.21875 177.121094 242.207031 180.03125 240.199219 L 225.066406 209.257812 C 227.921875 207.253906 231.886719 207.953125 233.890625 210.8125 L 296.976562 299.175781 C 299.085938 302.082031 298.433594 306.09375 295.523438 308.152344 C 294.421875 308.953125 293.066406 309.355469 291.8125 309.355469 " fill-opacity="1" fill-rule="nonzero"/><g clip-path="url(#4277c9d78e)"><path fill="#ffa69e" d="M 33.648438 207.652344 C 31.089844 207.652344 28.632812 206.046875 27.628906 203.441406 L 8.070312 150.632812 C 7.46875 149.03125 7.519531 147.222656 8.273438 145.667969 C 8.972656 144.113281 10.328125 142.910156 11.933594 142.359375 L 43.023438 131.175781 C 46.335938 129.972656 50.046875 131.679688 51.25 135.039062 C 52.402344 138.398438 50.699219 142.058594 47.339844 143.261719 L 22.363281 152.238281 L 39.664062 198.976562 C 40.917969 202.289062 39.214844 206 35.902344 207.203125 C 35.152344 207.503906 34.398438 207.652344 33.648438 207.652344 " fill-opacity="1" fill-rule="nonzero"/></g><g clip-path="url(#dd4691b64c)"><path fill="#ffa69e" d="M 329.625 245.265625 C 326.96875 245.265625 324.511719 243.660156 323.558594 241.003906 C 322.402344 237.691406 324.109375 234.03125 327.46875 232.828125 L 352.441406 223.851562 L 335.089844 177.113281 C 333.886719 173.753906 335.542969 170.09375 338.902344 168.839844 C 342.210938 167.585938 345.921875 169.289062 347.128906 172.597656 L 366.734375 225.457031 C 367.335938 227.0625 367.285156 228.867188 366.535156 230.421875 C 365.832031 231.976562 364.480469 233.179688 362.875 233.730469 L 331.78125 244.914062 C 331.078125 245.164062 330.378906 245.265625 329.625 245.265625 " fill-opacity="1" fill-rule="nonzero"/></g><path fill="#ffa69e" d="M 80.535156 334.128906 C 77.980469 334.128906 75.523438 332.523438 74.519531 329.917969 L 50.246094 264.421875 C 48.992188 261.113281 50.699219 257.402344 54.058594 256.148438 C 57.367188 254.894531 61.027344 256.648438 62.28125 259.957031 L 84.398438 319.535156 L 194.125 280.371094 C 197.484375 279.164062 201.144531 280.921875 202.347656 284.230469 C 203.550781 287.589844 201.796875 291.25 198.4375 292.453125 L 82.691406 333.777344 C 81.992188 333.976562 81.289062 334.128906 80.535156 334.128906 " fill-opacity="1" fill-rule="nonzero"/><path fill="#ffa69e" d="M 318.542969 120.292969 C 315.933594 120.292969 313.476562 118.691406 312.523438 116.132812 L 290.410156 56.554688 L 180.632812 95.722656 C 177.324219 96.925781 173.664062 95.171875 172.460938 91.808594 C 171.253906 88.5 173.011719 84.839844 176.371094 83.636719 L 292.0625 42.3125 C 295.375 41.109375 299.035156 42.816406 300.238281 46.125 L 324.558594 111.617188 C 325.8125 114.980469 324.109375 118.640625 320.800781 119.894531 C 320.046875 120.195312 319.292969 120.292969 318.542969 120.292969 " fill-opacity="1" fill-rule="nonzero"/><g clip-path="url(#c9daf42831)"><path fill="#ffa69e" d="M 166.140625 367.777344 C 164.6875 367.777344 163.230469 367.277344 162.027344 366.324219 L 107.667969 321.542969 C 104.957031 319.285156 104.558594 315.222656 106.816406 312.515625 C 109.070312 309.757812 113.132812 309.40625 115.839844 311.613281 L 165.339844 352.382812 L 221.003906 287.339844 C 223.308594 284.683594 227.371094 284.332031 230.078125 286.636719 C 232.789062 288.945312 233.089844 293.007812 230.78125 295.714844 L 171.003906 365.570312 C 169.699219 367.027344 167.894531 367.777344 166.140625 367.777344 " fill-opacity="1" fill-rule="nonzero"/></g><path fill="#ffa69e" d="M 149.039062 91.007812 C 147.535156 91.007812 146.03125 90.457031 144.828125 89.453125 C 142.167969 87.144531 141.816406 83.085938 144.125 80.375 L 203.902344 10.570312 C 206.210938 7.910156 210.222656 7.558594 212.878906 9.765625 L 267.242188 54.550781 C 269.949219 56.804688 270.347656 60.867188 268.09375 63.578125 C 265.835938 66.335938 261.824219 66.683594 259.066406 64.429688 L 209.570312 23.707031 L 153.902344 88.75 C 152.601562 90.207031 150.84375 91.007812 149.039062 91.007812 " fill-opacity="1" fill-rule="nonzero"/><path fill="#ffa69e" d="M 257.261719 354.992188 C 256.859375 354.992188 256.507812 354.992188 256.15625 354.941406 L 186.351562 342.804688 C 182.839844 342.253906 180.484375 338.894531 181.085938 335.433594 C 181.6875 331.921875 185.046875 329.566406 188.507812 330.21875 L 252.046875 341.199219 L 259.96875 297.371094 C 260.570312 293.859375 263.878906 291.550781 267.390625 292.203125 C 270.902344 292.804688 273.207031 296.167969 272.605469 299.675781 L 263.578125 349.726562 C 263.027344 352.835938 260.320312 354.992188 257.261719 354.992188 " fill-opacity="1" fill-rule="nonzero"/><path fill="#ffa69e" d="M 108.570312 83.988281 C 108.167969 83.988281 107.816406 83.9375 107.417969 83.886719 C 103.90625 83.234375 101.597656 79.925781 102.199219 76.414062 L 111.226562 26.367188 C 111.828125 22.855469 115.1875 20.597656 118.648438 21.148438 L 188.605469 33.234375 C 192.066406 33.839844 194.425781 37.199219 193.824219 40.660156 C 193.222656 44.167969 190.011719 46.527344 186.402344 45.925781 L 122.710938 34.890625 L 114.886719 78.671875 C 114.285156 81.78125 111.578125 83.988281 108.570312 83.988281 " fill-opacity="1" fill-rule="nonzero"/></svg>